<?xml version="1.0" encoding="UTF-8"?>
<svg width="215px" height="215px" viewBox="0 0 215 215" version="1.1" xmlns="http://www.w3.org/2000/svg" xmlns:xlink="http://www.w3.org/1999/xlink">
    <title>mpost copy</title>
    <defs>
        <radialGradient cx="68.8598058%" cy="88.0784893%" fx="68.8598058%" fy="88.0784893%" r="102.806793%" gradientTransform="translate(0.688598,0.880785),scale(0.807309,1.000000),rotate(-131.431000),translate(-0.688598,-0.880785)" id="radialGradient-1">
            <stop stop-color="#33FFCC" offset="0%"></stop>
            <stop stop-color="#0F7FFF" offset="100%"></stop>
        </radialGradient>
    </defs>
    <g id="mpost-copy" stroke="none" stroke-width="1" fill="none" fill-rule="evenodd">
        <g id="moralismoney" transform="translate(32.000000, 47.000000)" fill-rule="nonzero">
            <path d="M144.709009,25.6988891 C138.051953,11.6009237 124.473046,1.84558082 109.167713,0.692063949 C101.668232,-0.00735540939 93.929789,1.26621276 87.1685911,4.6850054 C82.628699,6.94506193 78.5877228,10.0820155 75.191785,13.8192021 C68.1863767,5.8437738 58.2843502,0.62942902 47.6020612,0.0865952495 C25.1456003,-1.26526449 5.78871461,13.323354 1.07172355,35.976152 C-1.79384568,49.5416176 1.3317572,63.7074372 7.53617143,75.6394377 C13.7301553,87.4095731 22.7689282,97.8746965 34.5275999,104.023552 C42.7344024,108.031832 50.4260218,97.8642015 44.4245,90.7554579 C42.5107783,88.6047915 40.7476194,86.3184975 39.1405936,83.8759895 C37.6480037,81.6106855 36.3062188,79.2303402 35.0892839,76.7930797 C31.7088464,69.84055 29.1865361,62.0112847 28.687257,54.3019046 C28.3908138,49.4007425 29.030524,45.1781222 31.0587623,40.9139255 C32.9778122,36.9365651 36.0878018,33.5177805 40.170314,31.9101493 C46.5202696,29.4935155 53.1458398,30.793159 57.9723259,36.0127231 C61.1083108,39.2540615 62.543703,43.7899574 64.1454005,47.9758453 C64.264882,48.2785855 64.3948584,48.5708307 64.5300824,48.8578284 C67.7181386,58.7279663 82.3320136,58.9786352 85.0623266,47.7514139 C85.1458829,47.3703649 85.2290355,46.9840684 85.3174357,46.5925244 C85.3327745,46.5299581 85.348517,46.4726393 85.3642595,46.410073 C85.3795983,46.3475066 85.3900933,46.2849403 85.4058358,46.2167229 C85.6399549,45.2148546 85.9104028,44.2125827 86.2587559,43.2781246 C87.3453914,40.2666266 89.1553742,37.3593518 91.3294525,35.1410331 C94.6059088,31.7953098 98.7817053,29.7753465 103.353082,30.2242496 C105.911843,30.3703723 108.798369,31.0697829 110.8788,32.2024349 C122.548829,38.5546105 121.331814,55.2468576 116.328931,66.2444001 C112.813108,73.9485328 107.186177,80.3944772 100.945289,85.9636859 C99.4009099,87.3365118 97.637751,88.8502129 96.041301,90.1289875 C88.7238684,95.8338239 86.851723,106.633172 92.6348682,114.373634 C98.8390241,122.881441 111.195668,123.293975 118.294724,115.72547 C119.68854,114.342553 121.035532,112.90716 122.361534,111.461273 C135.75355,96.4497993 147.922899,74.1677167 149.816034,53.6338578 C150.596297,44.0349751 148.8953,34.4416225 144.698514,25.7040962 L144.709009,25.6988891 Z" id="Path" fill="#FFFFFF"></path>
            <path d="M144.709009,25.6988891 C138.051953,11.6009237 124.473046,1.84558082 109.167713,0.692063949 C101.668232,-0.00735540939 93.929789,1.26621276 87.1685911,4.6850054 C82.628699,6.94506193 78.5877228,10.0820155 75.191785,13.8192021 C68.1863767,5.8437738 58.2843502,0.62942902 47.6020612,0.0865952495 C25.1456003,-1.26526449 5.78871461,13.323354 1.07172355,35.976152 C-1.79384568,49.5416176 1.3317572,63.7074372 7.53617143,75.6394377 C13.7301553,87.4095731 22.7689282,97.8746965 34.5275999,104.023552 C42.7344024,108.031832 50.4260218,97.8642015 44.4245,90.7554579 C42.5107783,88.6047915 40.7476194,86.3184975 39.1405936,83.8759895 C37.6480037,81.6106855 36.3062188,79.2303402 35.0892839,76.7930797 C31.7088464,69.84055 29.1865361,62.0112847 28.687257,54.3019046 C28.3908138,49.4007425 29.030524,45.1781222 31.0587623,40.9139255 C32.9778122,36.9365651 36.0878018,33.5177805 40.170314,31.9101493 C46.5202696,29.4935155 53.1458398,30.793159 57.9723259,36.0127231 C61.1083108,39.2540615 62.543703,43.7899574 64.1454005,47.9758453 C64.264882,48.2785855 64.3948584,48.5708307 64.5300824,48.8578284 C67.7181386,58.7279663 82.3320136,58.9786352 85.0623266,47.7514139 C85.1458829,47.3703649 85.2290355,46.9840684 85.3174357,46.5925244 C85.3327745,46.5299581 85.348517,46.4726393 85.3642595,46.410073 C85.3795983,46.3475066 85.3900933,46.2849403 85.4058358,46.2167229 C85.6399549,45.2148546 85.9104028,44.2125827 86.2587559,43.2781246 C87.3453914,40.2666266 89.1553742,37.3593518 91.3294525,35.1410331 C94.6059088,31.7953098 98.7817053,29.7753465 103.353082,30.2242496 C105.911843,30.3703723 108.798369,31.0697829 110.8788,32.2024349 C122.548829,38.5546105 121.331814,55.2468576 116.328931,66.2444001 C112.813108,73.9485328 107.186177,80.3944772 100.945289,85.9636859 C99.4009099,87.3365118 97.637751,88.8502129 96.041301,90.1289875 C88.7238684,95.8338239 86.851723,106.633172 92.6348682,114.373634 C98.8390241,122.881441 111.195668,123.293975 118.294724,115.72547 C119.68854,114.342553 121.035532,112.90716 122.361534,111.461273 C135.75355,96.4497993 147.922899,74.1677167 149.816034,53.6338578 C150.596297,44.0349751 148.8953,34.4416225 144.698514,25.7040962 L144.709009,25.6988891 Z" id="Path" fill="url(#radialGradient-1)"></path>
        </g>
    </g>
</svg>