<svg width="1920" height="1080" viewBox="0 0 1920 1080" fill="none" xmlns="http://www.w3.org/2000/svg">
<g clip-path="url(#clip0_20005266_8731)">
<mask id="mask0_20005266_8731" style="mask-type:luminance" maskUnits="userSpaceOnUse" x="0" y="0" width="1920" height="1080">
<path d="M1920 0H0V1080H1920V0Z" fill="white"/>
</mask>
<g mask="url(#mask0_20005266_8731)">
<path d="M1920 0H0V1080H1920V0Z" fill="url(#paint0_radial_20005266_8731)" fill-opacity="0.3"/>
<g opacity="0.15" filter="url(#filter0_f_20005266_8731)">
<path opacity="0.1" d="M1304.56 762.024C1114.27 744.285 967.637 668.364 977.051 592.451C986.465 516.538 1148.36 469.378 1338.65 487.118C1528.94 504.858 1675.56 580.778 1666.15 656.692C1656.74 732.605 1494.85 779.764 1304.56 762.024Z" fill="#5E75C9"/>
</g>
<g opacity="0.15" filter="url(#filter1_f_20005266_8731)">
<path opacity="0.1" d="M1463.78 592.221C1231.66 579.211 1051.57 460.392 1061.52 326.832C1071.48 193.272 1267.72 95.547 1499.84 108.557C1731.96 121.567 1912.05 240.386 1902.1 373.946C1892.14 507.506 1695.9 605.231 1463.78 592.221Z" fill="white"/>
</g>
<path opacity="0.8" fill-rule="evenodd" clip-rule="evenodd" d="M2537 592.5C2537 592.224 2536.78 592 2536.5 592H1632.5C1592.46 592 1560 624.459 1560 664.5V1204.5C1560 1204.78 1560.22 1205 1560.5 1205C1560.78 1205 1561 1204.78 1561 1204.5V664.5C1561 625.012 1593.01 593 1632.5 593H2536.5C2536.78 593 2537 592.776 2537 592.5Z" fill="url(#paint1_linear_20005266_8731)" fill-opacity="0.15"/>
<path opacity="0.65" fill-rule="evenodd" clip-rule="evenodd" d="M2540 534.5C2540 534.224 2539.78 534 2539.5 534H1593.5C1541.31 534 1499 576.309 1499 628.5V1193.5C1499 1193.78 1499.22 1194 1499.5 1194C1499.78 1194 1500 1193.78 1500 1193.5V628.5C1500 576.861 1541.86 535 1593.5 535H2539.5C2539.78 535 2540 534.776 2540 534.5Z" fill="url(#paint2_linear_20005266_8731)" fill-opacity="0.15"/>
<path opacity="0.5" fill-rule="evenodd" clip-rule="evenodd" d="M2553 467.5C2553 467.224 2552.78 467 2552.5 467H1544.5C1482.37 467 1432 517.368 1432 579.5V1183.5C1432 1183.78 1432.22 1184 1432.5 1184C1432.78 1184 1433 1183.78 1433 1183.5V579.5C1433 517.92 1482.92 468 1544.5 468H2552.5C2552.78 468 2553 467.776 2553 467.5Z" fill="url(#paint3_linear_20005266_8731)" fill-opacity="0.15"/>
<path opacity="0.3" fill-rule="evenodd" clip-rule="evenodd" d="M2557 393.5C2557 393.224 2556.78 393 2556.5 393H1484.5C1413.53 393 1356 450.531 1356 521.5V1173.5C1356 1173.78 1356.22 1174 1356.5 1174C1356.78 1174 1357 1173.78 1357 1173.5V521.5C1357 451.084 1414.08 394 1484.5 394H2556.5C2556.78 394 2557 393.776 2557 393.5Z" fill="url(#paint4_linear_20005266_8731)" fill-opacity="0.15"/>
<path opacity="0.2" fill-rule="evenodd" clip-rule="evenodd" d="M2557 303.5C2557 303.224 2556.78 303 2556.5 303H1392.5C1319.32 303 1260 362.322 1260 435.5V1163.5C1260 1163.78 1260.22 1164 1260.5 1164C1260.78 1164 1261 1163.78 1261 1163.5V435.5C1261 362.875 1319.87 304 1392.5 304H2556.5C2556.78 304 2557 303.776 2557 303.5Z" fill="url(#paint5_linear_20005266_8731)" fill-opacity="0.15"/>
<g opacity="0.5">
<mask id="mask1_20005266_8731" style="mask-type:luminance" maskUnits="userSpaceOnUse" x="0" y="90" width="992" height="990">
<path d="M0 90H992V1080H0V90Z" fill="white"/>
</mask>
<g mask="url(#mask1_20005266_8731)">
<path d="M0.160183 1080L524.733 1066.52C524.893 1071.01 524.893 1075.51 524.893 1080H-0.000294805H0.160183ZM-0.802884 1080H-0.963362H-1.60547H-0.802884ZM-0.160774 1080H-0.000294805H0.160183H0.32076H0.481239L520.399 1012.29C521.522 1021.27 522.485 1030.42 523.288 1039.57L0.32076 1080H0.160183H-0.160774ZM510.446 957.895C512.533 966.88 514.459 975.865 516.225 984.851L0.481239 1079.84L510.446 957.895ZM-0.160774 1080H0.160183H0.32076H-0.160774ZM494.716 904.784C497.766 913.449 500.655 922.274 503.223 931.099L0.32076 1079.84L494.716 904.784ZM473.688 853.76C477.701 862.104 481.393 870.447 484.924 878.951L0.481239 1079.68L473.688 853.76ZM447.363 805.464C452.179 813.326 456.673 821.188 461.168 829.211L0.641815 1079.84L447.363 805.464ZM0.160183 1080L416.223 760.376C421.841 767.596 427.138 774.977 432.274 782.519L0.32076 1079.84L0.160183 1080ZM-0.000294805 1080L380.748 718.818C387.008 725.397 393.108 732.136 399.047 739.196L-0.000294805 1080ZM-0.000294805 1079.84L341.1 681.112C348.003 687.049 354.744 693.146 361.486 699.404L-0.000294805 1079.84ZM-0.000294805 1079.84V1079.68L297.6 647.898C305.144 653.032 312.528 658.488 319.751 663.943L-0.000294805 1079.84ZM0.160183 1079.52L250.889 619.016C258.915 623.348 266.941 628.002 274.646 632.815L0.160183 1079.52ZM200.968 595.269C209.476 598.799 217.823 602.489 226.17 606.501L-0.000294805 1079.52L200.968 595.269ZM148.961 576.817C157.789 579.384 166.618 582.272 175.285 585.321L0.160183 1079.36L148.961 576.817ZM95.1867 563.981C104.337 565.585 113.326 567.511 122.154 569.757L0.160183 1079.52L95.1867 563.981ZM-0.000294805 1080V1079.84V1079.68L40.7712 556.921C49.9207 557.562 58.9097 558.525 68.0592 559.809L0.32076 1079.52V1079.68V1079.84L-0.000294805 1080ZM-0.000294805 1080V555.316C4.4942 555.316 8.98874 555.316 13.4832 555.477L-0.000294805 1079.84V1080ZM-0.000294805 555.316V1080H-0.160774H-0.642405H-0.802884H-0.963362H-1.60547V555.316H-0.000294805ZM0.160183 1080L524.733 1066.52L990.073 1054.49C990.234 1062.99 990.395 1071.5 990.395 1080H-0.000294805H0.160183ZM-0.802884 1080H-0.963362H-1.60547H-0.802884ZM-0.160774 1080H-0.000294805H0.160183H0.32076H0.481239L520.559 1012.13L982.048 951.958C984.295 968.966 986.061 986.135 987.345 1003.3L523.288 1039.24L0.32076 1080H0.160183H-0.160774ZM0.481239 1079.84L510.446 957.895L963.107 849.588C967.119 866.436 970.811 883.444 973.861 900.613L516.065 984.851L0.481239 1079.84ZM494.716 904.784L933.571 749.465C939.35 765.831 944.807 782.358 949.623 799.045L503.223 931.099L0.32076 1079.84L494.716 904.784ZM473.688 853.76L893.602 653.193C901.147 668.757 908.209 684.642 914.791 700.848L484.764 879.112L0.32076 1079.84L473.688 853.76ZM447.363 805.464L844.002 562.055C852.991 576.817 861.659 591.739 870.006 606.982L0.481239 1079.84L447.363 805.464ZM0.160183 1080L416.223 760.376L785.413 476.854C795.847 490.493 805.96 504.452 815.912 518.572L432.435 782.519L0.481239 1079.84L0.160183 1080ZM0.160183 1080L380.748 718.818L718.317 398.392C730.195 410.908 741.592 423.583 752.828 436.741L399.047 739.036L0.160183 1080ZM-0.000294805 1079.84L341.1 681.112L643.516 327.472C656.678 338.703 669.359 350.096 681.879 361.969L361.326 699.404L-0.000294805 1079.84ZM-0.000294805 1079.84V1079.68L297.6 647.898L561.652 264.574C575.938 274.361 589.742 284.47 603.386 295.06L319.751 664.104L-0.000294805 1079.84ZM0.160183 1079.52L473.206 210.34C488.456 218.684 503.384 227.348 518.151 236.334L274.485 632.815L0.160183 1079.52ZM200.968 595.269L379.303 165.413C395.355 172.152 411.247 179.212 426.977 186.593L226.33 606.501L0.160183 1079.52L200.968 595.269ZM148.961 576.817L280.906 130.595C297.6 135.569 314.294 140.864 330.506 146.64L175.125 585.321L-0.000294805 1079.36L148.961 576.817ZM0.160183 1079.52L95.1867 563.981L179.459 106.366C196.634 109.575 213.649 113.105 230.504 117.117L122.154 569.596L0.160183 1079.52ZM-0.000294805 1079.84V1079.68L40.7712 556.921L76.7271 92.8882C93.9025 94.1718 111.078 96.0972 128.093 98.1831L67.8987 559.648L-0.000294805 1079.52V1079.68V1079.84ZM-0.000294805 1080V90C8.50714 90 17.0146 90.1605 25.522 90.3209L13.4832 555.477L-0.000294805 1079.84V1080ZM-0.000294805 90V1080H-0.160774H-0.642405H-0.802884H-0.963362H-1.60547V90H-0.000294805Z" fill="url(#paint6_radial_20005266_8731)"/>
</g>
</g>
</g>
</g>
<defs>
<filter id="filter0_f_20005266_8731" x="626.621" y="133.383" width="1389.96" height="982.376" filterUnits="userSpaceOnUse" color-interpolation-filters="sRGB">
<feFlood flood-opacity="0" result="BackgroundImageFix"/>
<feBlend mode="normal" in="SourceGraphic" in2="BackgroundImageFix" result="shape"/>
<feGaussianBlur stdDeviation="175" result="effect1_foregroundBlur_20005266_8731"/>
</filter>
<filter id="filter1_f_20005266_8731" x="611.13" y="-342.605" width="1741.36" height="1385.99" filterUnits="userSpaceOnUse" color-interpolation-filters="sRGB">
<feFlood flood-opacity="0" result="BackgroundImageFix"/>
<feBlend mode="normal" in="SourceGraphic" in2="BackgroundImageFix" result="shape"/>
<feGaussianBlur stdDeviation="225" result="effect1_foregroundBlur_20005266_8731"/>
</filter>
<radialGradient id="paint0_radial_20005266_8731" cx="0" cy="0" r="1" gradientUnits="userSpaceOnUse" gradientTransform="translate(1407.5 339.12) rotate(-48.9169) scale(2477.35 1281.77)">
<stop stop-color="#5E75C9" stop-opacity="0.1"/>
<stop offset="0.524709" stop-color="#B46D7D" stop-opacity="0.05"/>
<stop offset="1" stop-color="#6387F1" stop-opacity="0.1"/>
</radialGradient>
<linearGradient id="paint1_linear_20005266_8731" x1="2537" y1="899.967" x2="1560" y2="899.967" gradientUnits="userSpaceOnUse">
<stop stop-color="#6366F1"/>
<stop offset="1" stop-color="#B46D7D"/>
</linearGradient>
<linearGradient id="paint2_linear_20005266_8731" x1="2540" y1="865.579" x2="1499" y2="865.579" gradientUnits="userSpaceOnUse">
<stop stop-color="#6366F1"/>
<stop offset="1" stop-color="#B46D7D"/>
</linearGradient>
<linearGradient id="paint3_linear_20005266_8731" x1="2553" y1="827.215" x2="1432" y2="827.215" gradientUnits="userSpaceOnUse">
<stop stop-color="#6366F1"/>
<stop offset="1" stop-color="#B46D7D"/>
</linearGradient>
<linearGradient id="paint4_linear_20005266_8731" x1="2557" y1="785.368" x2="1356" y2="785.368" gradientUnits="userSpaceOnUse">
<stop stop-color="#6366F1"/>
<stop offset="1" stop-color="#B46D7D"/>
</linearGradient>
<linearGradient id="paint5_linear_20005266_8731" x1="2557" y1="735.56" x2="1260" y2="735.56" gradientUnits="userSpaceOnUse">
<stop stop-color="#6366F1"/>
<stop offset="1" stop-color="#B46D7D"/>
</linearGradient>
<radialGradient id="paint6_radial_20005266_8731" cx="0" cy="0" r="1" gradientUnits="userSpaceOnUse" gradientTransform="translate(-34.7983 1138.81) rotate(-46.0678) scale(1058.92 1061.02)">
<stop stop-color="#5E75C9" stop-opacity="0.03"/>
<stop offset="1" stop-color="white" stop-opacity="0"/>
</radialGradient>
<clipPath id="clip0_20005266_8731">
<rect width="1920" height="1080" fill="white"/>
</clipPath>
</defs>
</svg>
