<?xml version="1.0" encoding="UTF-8"?>
<svg width="48px" height="48px" viewBox="0 0 48 48" version="1.1" xmlns="http://www.w3.org/2000/svg" xmlns:xlink="http://www.w3.org/1999/xlink">
    <title>Artboard Copy 6</title>
    <g id="Artboard-Copy-6" stroke="none" stroke-width="1" fill="none" fill-rule="evenodd">
        <rect id="Rectangle" fill="#FF007A" x="0" y="0" width="48" height="48" rx="8"></rect>
        <g id="Group" transform="translate(6.580645, 6.193548)" fill="#FFFFFF">
            <path d="M11.989735,8.09968557 C11.6082691,8.04458567 11.5901041,8.02621904 11.7717545,8.0078524 C12.1168903,7.9527525 12.9161521,8.02621904 13.4792683,8.15478547 C14.7871513,8.46701825 15.9678789,9.27515014 17.2212668,10.689381 L17.5482375,11.0750803 L18.0205286,11.0016137 C20.0368481,10.6710143 22.1076628,10.9281472 23.8333416,11.7362791 C24.3056327,11.9566787 25.0503994,12.3974779 25.1412246,12.5076777 C25.1775547,12.544411 25.2320498,12.7831772 25.2683799,13.0219435 C25.3955352,13.8851753 25.34104,14.5280075 25.0685644,15.0239066 C24.9232441,15.2994061 24.9232441,15.3728726 25.0140693,15.6116389 C25.0867295,15.7953052 25.30471,15.9238716 25.5045254,15.9238716 C25.9404864,15.9238716 26.3946124,15.2259395 26.6125929,14.2525079 L26.7034181,13.8668086 L26.8669035,14.050475 C27.7933206,15.0973731 28.5199222,16.5483372 28.6289124,17.5768687 L28.6652425,17.8523682 L28.5017571,17.613602 C28.2292815,17.1911694 27.974971,16.9156699 27.6298352,16.6769036 C27.0122238,16.254471 26.3582823,16.1259046 24.6326034,16.0340714 C23.0704099,15.9422383 22.1803229,15.8136718 21.308401,15.5198057 C19.8188676,15.0239066 19.0559359,14.3810744 17.2939269,12.0117786 C16.5128302,10.9648805 16.0223741,10.3955148 15.531918,9.91798233 C14.4601805,8.8710842 13.3884431,8.32008518 11.989735,8.09968557 Z" id="Path" fill-rule="nonzero"></path>
            <path d="M25.5226904,10.4322481 C25.5590205,9.73431599 25.6498457,9.27515014 25.8496612,8.85271756 C25.9223213,8.68741786 25.9949815,8.54048479 26.0131465,8.54048479 C26.0313116,8.54048479 25.9949815,8.66905122 25.9404864,8.8159843 C25.7951661,9.22005024 25.777001,9.78941589 25.8678262,10.4322481 C25.9949815,11.2587466 26.0494766,11.3689464 26.9213986,12.2689115 C27.3210295,12.6913441 27.7933206,13.2239764 27.974971,13.4443761 L28.2837767,13.848442 L27.974971,13.5545759 C27.5935051,13.1872432 26.7215831,12.4893111 26.5217677,12.3974779 C26.3946124,12.3240114 26.3764474,12.3240114 26.2856222,12.4158445 C26.212962,12.4893111 26.194797,12.5995109 26.194797,13.1321433 C26.1766319,13.9586418 26.0676417,14.4729076 25.7951661,15.0055399 C25.6498457,15.2810394 25.6316807,15.2259395 25.758836,14.9137068 C25.8496612,14.6749405 25.8678262,14.5647407 25.8678262,13.7749755 C25.8678262,12.1770783 25.6861758,11.791379 24.5781083,11.1485468 C24.3056327,10.9832471 23.8333416,10.7444809 23.560866,10.6159144 C23.2702254,10.487348 23.0522449,10.3771482 23.0704099,10.3771482 C23.10674,10.3404149 24.1784774,10.6526477 24.5962734,10.836314 C25.2320498,11.0934469 25.34104,11.1118135 25.4137002,11.0934469 C25.4681953,11.038347 25.5045254,10.8914139 25.5226904,10.4322481 Z" id="Path" fill-rule="nonzero"></path>
            <path d="M12.7345017,13.1688765 C11.9715699,12.1036118 11.4811138,10.4506147 11.5901041,9.22005024 L11.6264342,8.83435093 L11.8080846,8.8710842 C12.1350553,8.9261841 12.6981716,9.14658371 12.9706472,9.31188341 C13.6972488,9.75268263 14.0242196,10.3587815 14.3330253,11.8648455 C14.4238505,12.3056447 14.5510057,12.8199105 14.6055009,12.9852102 C14.6963261,13.2607097 15.0414618,13.9035419 15.3321025,14.3076078 C15.531918,14.601474 15.4047627,14.7484071 14.9506366,14.7116738 C14.2603651,14.6382073 13.333948,13.9953751 12.7345017,13.1688765 Z" id="Path" fill-rule="nonzero"></path>
            <path d="M24.5962734,21.1583623 C20.9995953,19.6890316 19.7280424,18.4217339 19.7280424,16.2728377 C19.7280424,15.9606049 19.7462074,15.703472 19.7462074,15.703472 C19.7643725,15.703472 19.8915278,15.8136718 20.0550131,15.9422383 C20.7816148,16.5299706 21.5990416,16.7871034 23.8696717,17.1177028 C25.1957197,17.3197358 25.9586514,17.4666689 26.648923,17.7054351 C28.8468929,18.4401005 30.209271,19.9461645 30.5362417,21.9848608 C30.6270669,22.5725931 30.5725718,23.6929578 30.4272515,24.2806901 C30.3000962,24.7398559 29.9367954,25.5847211 29.8459702,25.6030877 C29.8278051,25.6030877 29.7914751,25.5112546 29.7914751,25.3643215 C29.755145,24.5929229 29.3736791,23.8582575 28.7379027,23.2888918 C27.974971,22.627693 26.9940588,22.1317939 24.5962734,21.1583623 Z" id="Path" fill-rule="nonzero"></path>
            <path d="M22.0531676,21.7644612 C22.0168375,21.4889617 21.9260123,21.1399957 21.8715172,20.9930626 L21.780692,20.7175631 L21.9441774,20.9195961 C22.1803229,21.1950956 22.3619733,21.525695 22.5254587,21.9848608 C22.652614,22.3338269 22.652614,22.4440267 22.652614,23.0133923 C22.652614,23.5643914 22.6344489,23.6929578 22.5254587,24.0051906 C22.3438083,24.5010897 22.1258278,24.8500557 21.762527,25.235755 C21.1085855,25.9153205 20.2548286,26.2826532 19.0377708,26.4479529 C18.8197904,26.4663195 18.202179,26.5214194 17.6572277,26.5581527 C16.2948497,26.6316192 15.3865976,26.7785523 14.5691708,27.0724184 C14.4601805,27.1091517 14.3511903,27.145885 14.3330253,27.1275183 C14.2966952,27.0907851 14.8598114,26.7601857 15.3139375,26.5397861 C15.9497139,26.2275533 16.6036554,26.0622536 18.0386936,25.8051207 C18.7471302,25.6949209 19.4737318,25.5479878 19.6553822,25.4745213 C21.4537213,24.9051556 22.3438083,23.4909248 22.0531676,21.7644612 Z" id="Path" fill-rule="nonzero"></path>
            <path d="M23.7061864,24.7214893 C23.2338953,23.6745912 23.124905,22.6827929 23.3792156,21.7460946 C23.4155457,21.6542614 23.4518758,21.5624283 23.4882059,21.5624283 C23.5245359,21.5624283 23.6335262,21.6175282 23.7425164,21.6909947 C23.9604969,21.8379278 24.4146229,22.0950606 25.5771856,22.7378928 C27.0485539,23.5460247 27.8841458,24.1704903 28.4654271,24.886789 C28.9740482,25.5112546 29.2828539,26.2275533 29.4281742,27.1091517 C29.5189994,27.6050508 29.4645043,28.798882 29.337349,29.2947811 C28.9377181,30.855945 28.0294661,32.1048761 26.7034181,32.8211749 C26.5036027,32.9313747 26.3401173,33.0048412 26.3219522,33.0048412 C26.3037872,33.0048412 26.3764474,32.8211749 26.4854376,32.6007753 C26.9213986,31.6640769 26.9758937,30.7641119 26.648923,29.753947 C26.4491075,29.1294814 26.0313116,28.3764495 25.1957197,27.1091517 C24.1966425,25.639821 23.9604969,25.2541217 23.7061864,24.7214893 Z" id="Path" fill-rule="nonzero"></path>
            <path d="M10.1732309,30.3416793 C11.5174439,29.202948 13.1704626,28.3948161 14.6963261,28.1376832 C15.3502675,28.0274834 16.44017,28.0642167 17.0396163,28.2295164 C18.0023635,28.4866493 18.8742855,29.0376483 19.3284115,29.7172137 C19.7643725,30.3784126 19.9641879,30.9477782 20.1640034,32.2150759 C20.2366635,32.7109751 20.3274887,33.2252408 20.3456538,33.3354406 C20.4909741,33.9966394 20.7816148,34.5109052 21.1449156,34.7864047 C21.7080319,35.2088373 22.6889441,35.2272039 23.6516912,34.8598712 C23.8151766,34.8047713 23.9604969,34.7496714 23.9604969,34.7680381 C23.996827,34.8047713 23.5063709,35.1353707 23.1794002,35.3006704 C22.7252741,35.5394367 22.3619733,35.6129032 21.8715172,35.6129032 C20.9995953,35.6129032 20.2548286,35.1537374 19.6553822,34.2354057 C19.5282269,34.0517393 19.2739164,33.519107 19.0559359,33.0232078 C18.4201595,31.5355105 18.0931887,31.0947113 17.348422,30.5988122 C16.6944806,30.1763796 15.8588887,30.0845464 15.2231123,30.3967792 C14.3875204,30.8008451 14.1695399,31.8844765 14.7508212,32.5456754 C14.9869667,32.8211749 15.4229277,33.0415745 15.7862285,33.0966744 C16.458335,33.1885075 17.0396163,32.6558752 17.0396163,31.9763097 C17.0396163,31.5355105 16.876131,31.2783776 16.44017,31.0763446 C15.8588887,30.8192118 15.2231123,31.1130779 15.2412773,31.6824436 C15.2412773,31.9212098 15.3502675,32.0681429 15.5864131,32.1783427 C15.7317334,32.2518092 15.7317334,32.2518092 15.6227432,32.2334426 C15.095957,32.1232428 14.9688017,31.462044 15.3865976,31.0396114 C15.8952188,30.5253456 16.9669562,30.7457452 17.330257,31.462044 C17.4755773,31.7559101 17.4937424,32.3436424 17.3665871,32.7109751 C17.0577814,33.519107 16.1858594,33.9415395 15.2957724,33.7027733 C14.6963261,33.5374736 14.4420155,33.3721739 13.7154139,32.6191419 C12.443861,31.2967442 11.9534049,31.0396114 10.1369008,30.7641119 L9.79176503,30.709012 L10.1732309,30.3416793 Z" id="Path" fill-rule="nonzero"></path>
            <path d="M0.61841938,0.78976526 C4.85087391,5.98752267 11.3721236,14.0688416 11.6990943,14.5096408 C11.9715699,14.8769735 11.8625797,15.2259395 11.4084537,15.4830724 C11.1541431,15.6300055 10.6273569,15.7769386 10.3730463,15.7769386 C10.0824057,15.7769386 9.73726991,15.6300055 9.50112438,15.3912392 C9.33763901,15.2259395 8.62920241,14.1790414 7.03067881,11.6628126 C5.81362107,9.73431599 4.77821374,8.13641884 4.7600487,8.11805221 C4.68738854,8.08131894 4.68738854,8.08131894 6.90352353,12.0852451 C8.30223168,14.601474 8.7563577,15.5014391 8.7563577,15.6116389 C8.7563577,15.8504051 8.68369754,15.9789715 8.39305688,16.3095709 C7.90260078,16.86057 7.68462029,17.4850355 7.52113492,18.7890665 C7.33948451,20.2400306 6.84902841,21.2685621 5.45032026,23.0133923 C4.63289342,24.0419238 4.50573813,24.2255902 4.30592268,24.6480228 C4.05161211,25.1622885 3.97895194,25.4561547 3.94262186,26.1173535 C3.90629178,26.8152856 3.97895194,27.2560848 4.17876739,27.9172836 C4.3604178,28.5050159 4.56023325,28.8907152 5.05068936,29.6437472 C5.4684853,30.304946 5.72279587,30.8008451 5.72279587,30.9845115 C5.72279587,31.1314445 5.75912595,31.1314445 6.41306742,30.9845115 C7.97526094,30.6171788 9.26497884,29.9927132 9.97341544,29.2213146 C10.4093764,28.7437821 10.5183667,28.4866493 10.5183667,27.8254504 C10.5183667,27.4030179 10.5002016,27.3111847 10.3912114,27.0540518 C10.209561,26.6499859 9.86442519,26.3193864 9.11965852,25.8051207 C8.13874631,25.1255552 7.72095037,24.5745562 7.61196012,23.8398909 C7.52113492,23.2154253 7.63012516,22.7929927 8.17507639,21.6358948 C8.73819266,20.4420636 8.88351299,19.9461645 8.97433819,18.7339666 C9.02883331,17.962568 9.11965852,17.6503352 9.33763901,17.411569 C9.57378454,17.1544361 9.77359999,17.0626029 10.3367163,16.9891364 C11.2631333,16.86057 11.8625797,16.6218037 12.3348708,16.1626379 C12.7526667,15.7769386 12.9343171,15.3912392 12.9524821,14.8218736 L12.9706472,14.399441 L12.7345017,14.1423081 C11.8807447,13.1505099 0.0553031124,0 0.000807989682,0 C-0.0173570512,0 0.273283603,0.348966045 0.61841938,0.78976526 Z M6.19508693,26.9071187 C6.39490238,26.5581527 6.28591214,26.1173535 5.9589414,25.8969539 C5.65013571,25.6949209 5.17784464,25.7867541 5.17784464,26.0622536 C5.17784464,26.1357201 5.21417473,26.2091866 5.32316497,26.2459199 C5.48665034,26.3377531 5.50481538,26.4295863 5.37766009,26.6316192 C5.25050481,26.8336522 5.25050481,27.0173185 5.41399018,27.145885 C5.66830075,27.3479179 6.01343652,27.2377181 6.19508693,26.9071187 Z" id="Shape"></path>
            <path d="M13.5519285,17.2462693 C13.1159675,17.3748357 12.6981716,17.8523682 12.5710163,18.3299007 C12.4983561,18.6237668 12.5346862,19.1563992 12.6618415,19.3216989 C12.8616569,19.5788318 13.0433073,19.6522983 13.5519285,19.6522983 C14.5510057,19.6522983 15.4047627,19.2114991 15.4955879,18.6788667 C15.5864131,18.2380675 15.2049472,17.6319686 14.678161,17.3564691 C14.4056854,17.209536 13.8425691,17.1544361 13.5519285,17.2462693 Z M14.7144911,18.164601 C14.8598114,17.9442014 14.8053163,17.7054351 14.5328407,17.5401354 C14.0423846,17.2279026 13.2976179,17.4850355 13.2976179,17.962568 C13.2976179,18.2013342 13.6790838,18.4584671 14.0423846,18.4584671 C14.2785301,18.4584671 14.6055009,18.311534 14.7144911,18.164601 Z" id="Shape"></path>
        </g>
    </g>
</svg>